<?xml version="1.0" encoding="UTF-8" standalone="no"?>
<!-- Created with Inkscape (http://www.inkscape.org/) -->

<svg
   width="210mm"
   height="297mm"
   viewBox="0 0 210 297"
   version="1.1"
   id="svg1"
   xml:space="preserve"
   inkscape:version="1.3 (0e150ed6c4, 2023-07-21)"
   sodipodi:docname="logo.svg"
   inkscape:export-filename="logo.png"
   inkscape:export-xdpi="41.756168"
   inkscape:export-ydpi="41.756168"
   xmlns:inkscape="http://www.inkscape.org/namespaces/inkscape"
   xmlns:sodipodi="http://sodipodi.sourceforge.net/DTD/sodipodi-0.dtd"
   xmlns="http://www.w3.org/2000/svg"
   xmlns:svg="http://www.w3.org/2000/svg"><sodipodi:namedview
     id="namedview1"
     pagecolor="#505050"
     bordercolor="#eeeeee"
     borderopacity="1"
     inkscape:showpageshadow="0"
     inkscape:pageopacity="0"
     inkscape:pagecheckerboard="0"
     inkscape:deskcolor="#505050"
     inkscape:document-units="mm"
     inkscape:zoom="1.0847363"
     inkscape:cx="279.7915"
     inkscape:cy="683.57628"
     inkscape:window-width="1920"
     inkscape:window-height="1057"
     inkscape:window-x="-8"
     inkscape:window-y="-8"
     inkscape:window-maximized="1"
     inkscape:current-layer="layer1" /><defs
     id="defs1" /><g
     inkscape:label="Calque 1"
     inkscape:groupmode="layer"
     id="layer1"><text
       xml:space="preserve"
       style="font-size:50.4169px;font-family:Norwester;-inkscape-font-specification:Norwester;letter-spacing:-3.78694px;fill:#f4a026;fill-opacity:1;stroke:none;stroke-width:0.0242954;paint-order:stroke fill markers"
       x="50.481766"
       y="172.31003"
       id="text1"><tspan
         sodipodi:role="line"
         id="tspan1"
         style="font-style:normal;font-variant:normal;font-weight:bold;font-stretch:normal;font-size:50.4169px;font-family:Sans;-inkscape-font-specification:'Sans Bold';letter-spacing:-3.78694px;fill:#f4a026;fill-opacity:1;stroke:none;stroke-width:0.0242954"
         x="50.481766"
         y="172.31003">hint</tspan></text><text
       xml:space="preserve"
       style="font-size:23.31px;font-family:Norwester;-inkscape-font-specification:Norwester;letter-spacing:-2.30188px;fill:#7c187e;fill-opacity:1;stroke:none;stroke-width:0.0156012;paint-order:stroke fill markers"
       x="53.058846"
       y="191.12106"
       id="text1-7"><tspan
         sodipodi:role="line"
         id="tspan1-2"
         style="font-style:normal;font-variant:normal;font-weight:bold;font-stretch:normal;font-family:Sans;-inkscape-font-specification:'Sans Bold';letter-spacing:-2.30188px;fill:#7c187e;fill-opacity:1;stroke:none;stroke-width:0.0156012"
         x="53.058846"
         y="191.12106">machine</tspan></text><g
       id="g6"
       transform="matrix(0.00831081,0,0,0.00831081,147.41009,124.49033)">&#10;	<path
   class="st0"
   d="m 943.7,755.54 c 0,23.44 -1.51,46.89 -4.54,69.58 24.96,4.54 50.67,7.18 77.14,7.18 26.47,0 52.18,-2.65 77.14,-7.18 -3.02,-22.69 -4.54,-46.13 -4.54,-69.58 0,-214.4 128.95,-399.31 313.48,-480.99 C 1343.76,118.38 1192.89,7.21 1016.3,7.21 839.71,7.21 688.83,118.38 630.22,274.55 814.75,356.23 943.7,541.14 943.7,755.54 Z"
   id="path1"
   style="fill:#c97682" />&#10;	<path
   class="st1"
   d="m 1202.34,755.54 c 0,10.59 0.38,21.55 1.51,31.76 1.13,20.04 4.16,39.7 8.32,58.61 4.16,18.91 9.83,37.06 16.64,54.83 7.18,19.66 15.88,38.19 26.09,56.34 94.16,-88.49 220.83,-142.93 359.99,-142.93 139.16,0 265.83,54.45 359.98,142.93 33.65,-59.75 52.56,-128.57 52.56,-201.55 0,-227.26 -184.91,-412.55 -412.55,-412.55 -26.47,0 -52.18,2.65 -77.14,7.18 -18.91,3.78 -37.44,8.32 -55.21,14.75 -18.91,6.05 -37.06,13.99 -54.83,23.44 -133.47,68.08 -225.36,207.24 -225.36,367.19 z"
   id="path2"
   style="fill:#75c275" />&#10;	<path
   class="st2"
   d="m 417.71,814.15 c 139.15,0 265.83,54.45 359.99,142.93 10.21,-18.15 18.91,-36.68 26.09,-56.34 6.81,-17.77 12.48,-35.92 16.64,-54.83 4.16,-18.91 7.18,-38.57 8.32,-58.61 1.14,-10.21 1.51,-21.18 1.51,-31.76 0,-159.95 -91.51,-299.11 -224.99,-367.55 -17.77,-9.07 -35.92,-16.64 -55.21,-23.07 -17.77,-6.43 -36.3,-10.97 -55.21,-14.75 -24.96,-4.54 -50.67,-7.18 -77.14,-7.18 -227.64,0 -412.55,185.29 -412.55,412.55 0,72.98 18.91,141.8 52.56,201.55 94.16,-88.49 220.83,-142.94 359.99,-142.94 z"
   id="path3"
   style="fill:#eee391" />&#10;	<path
   class="st3"
   d="m 1943.49,1090.95 c -11.72,-15.12 -24.2,-29.49 -37.81,-43.11 -74.49,-74.49 -177.35,-120.25 -290.79,-120.25 -113.44,0 -215.92,45.75 -290.79,120.25 -13.24,13.23 -25.71,27.6 -37.44,42.73 -11.72,15.12 -22.31,31.01 -31.39,48.02 -13.23,22.69 -23.82,46.89 -32.14,72.23 187.55,80.16 319.15,266.59 319.15,483.26 0,17.4 -0.75,34.79 -2.64,51.8 24.58,4.54 49.54,6.81 75.25,6.81 227.64,0 412.55,-184.91 412.55,-412.55 0,-73.36 -19.29,-142.18 -52.94,-201.55 -9.08,-16.64 -19.67,-32.52 -31.01,-47.64 z"
   id="path4"
   style="fill:#ca94c2" />&#10;	<path
   class="st4"
   d="m 809.46,1210.82 c -8.32,-25.34 -18.91,-49.54 -32.14,-72.23 -9.07,-17.02 -19.66,-32.9 -31.39,-48.02 -11.34,-15.13 -23.82,-29.5 -37.44,-42.73 C 634,973.35 531.15,927.59 417.71,927.59 c -113.44,0 -216.29,45.75 -290.79,120.25 -13.61,13.23 -26.09,27.6 -37.44,42.73 -11.72,15.12 -22.31,31.01 -31.39,48.02 -33.65,59.37 -52.94,128.19 -52.94,201.55 0,227.64 184.91,412.55 412.55,412.55 25.71,0 50.67,-2.27 75.25,-6.81 -1.89,-17.02 -2.64,-34.41 -2.64,-51.8 0,-216.68 131.59,-403.1 319.15,-483.26 z"
   id="path5"
   style="fill:#767ebd" />&#10;	<path
   class="st5"
   d="m 1202.72,1326.15 c -17.77,-9.07 -36.3,-17.02 -55.59,-23.44 -17.77,-6.05 -36.68,-10.97 -55.59,-14.37 -24.58,-4.54 -49.54,-6.81 -75.25,-6.81 -25.71,0 -50.67,2.27 -75.25,6.81 -18.91,3.4 -37.81,8.32 -55.59,14.37 -19.28,6.43 -37.81,14.37 -55.59,23.44 -134.24,68.06 -226.13,207.6 -226.13,367.93 0,4.54 0,9.45 0.38,13.99 0.38,20.42 2.65,40.46 6.43,59.75 3.02,18.91 7.94,37.81 13.99,55.58 54.47,164.49 209.51,283.6 391.77,283.6 182.26,0 337.3,-119.11 391.75,-283.6 6.05,-17.77 10.97,-36.68 13.99,-55.58 3.78,-19.66 6.05,-39.7 6.43,-60.12 0.38,-4.54 0.38,-9.07 0.38,-13.61 -0.01,-160.34 -91.89,-299.88 -226.13,-367.94 z"
   id="path6"
   style="fill:#d9a07d" />&#10;</g></g></svg>
